# Blender v2.63 (sub 0) OBJ File: ''
# www.blender.org
mtllib sphere_lo-res.mtl
o Sphere
v -0.500000 0.866025 0.000000
v -0.866025 0.500000 0.000000
v -1.000000 -0.000000 0.000000
v -0.866025 -0.500000 0.000000
v -0.500000 -0.866025 0.000000
v -0.433013 0.866025 -0.250000
v -0.750000 0.500000 -0.433013
v -0.866025 -0.000000 -0.500000
v -0.750000 -0.500000 -0.433013
v -0.433013 -0.866025 -0.250000
v -0.250000 0.866025 -0.433013
v -0.433013 0.500000 -0.750000
v -0.500000 -0.000000 -0.866025
v -0.433013 -0.500000 -0.750000
v -0.250000 -0.866025 -0.433013
v -0.000000 0.866025 -0.500000
v -0.000000 0.500000 -0.866025
v -0.000000 -0.000000 -1.000000
v -0.000000 -0.500000 -0.866025
v -0.000000 -0.866025 -0.500000
v -0.000000 1.000000 0.000000
v 0.250000 0.866025 -0.433013
v 0.433012 0.500000 -0.750000
v 0.500000 -0.000000 -0.866025
v 0.433012 -0.500000 -0.750000
v 0.250000 -0.866025 -0.433013
v 0.433012 0.866025 -0.250000
v 0.750000 0.500000 -0.433013
v 0.866025 -0.000000 -0.500000
v 0.750000 -0.500000 -0.433013
v 0.433012 -0.866025 -0.250000
v 0.500000 0.866025 0.000000
v 0.866025 0.500000 0.000000
v 1.000000 -0.000000 0.000000
v 0.866025 -0.500000 0.000000
v 0.500000 -0.866025 0.000000
v -0.000000 -1.000000 0.000000
v 0.433012 0.866025 0.250000
v 0.750000 0.500000 0.433013
v 0.866025 -0.000000 0.500000
v 0.750000 -0.500000 0.433013
v 0.433012 -0.866025 0.250000
v 0.250000 0.866025 0.433013
v 0.433012 0.500000 0.750000
v 0.500000 -0.000000 0.866025
v 0.433012 -0.500000 0.750000
v 0.250000 -0.866025 0.433013
v -0.000000 0.866025 0.500000
v -0.000000 0.500000 0.866025
v -0.000000 -0.000000 1.000000
v -0.000000 -0.500000 0.866025
v -0.000000 -0.866025 0.500000
v -0.250000 0.866025 0.433013
v -0.433013 0.500000 0.750000
v -0.500000 -0.000000 0.866025
v -0.433013 -0.500000 0.750000
v -0.250000 -0.866025 0.433013
v -0.433013 0.866025 0.250000
v -0.750000 0.500000 0.433013
v -0.866025 -0.000000 0.500000
v -0.750000 -0.500000 0.433012
v -0.433013 -0.866025 0.250000
vn -0.875973 0.482315 0.000000
vn -0.530869 0.847407 0.000000
vn -0.459761 0.847407 -0.265419
vn -0.758599 0.482315 -0.437971
vn -0.866024 0.000000 -0.499985
vn -0.758599 -0.482315 -0.437971
vn -0.875973 -0.482315 0.000000
vn -1.000000 0.000000 0.000000
vn -0.459761 -0.847407 -0.265419
vn -0.530869 -0.847407 0.000000
vn -0.437971 0.482315 -0.758599
vn -0.499985 0.000000 -0.866024
vn -0.437971 -0.482315 -0.758599
vn -0.265419 -0.847407 -0.459761
vn -0.265419 0.847407 -0.459761
vn 0.000000 -0.482315 -0.875973
vn 0.000000 -0.847407 -0.530869
vn 0.000000 0.847407 -0.530869
vn 0.000000 0.482315 -0.875973
vn 0.000000 0.000000 -1.000000
vn 0.499985 0.000000 -0.866024
vn 0.437971 -0.482315 -0.758599
vn 0.437971 0.482315 -0.758599
vn 0.265450 -0.847407 -0.459761
vn 0.265419 0.847407 -0.459761
vn 0.758599 0.482315 -0.437971
vn 0.866024 0.000000 -0.499985
vn 0.758599 -0.482315 -0.437971
vn 0.459761 -0.847407 -0.265419
vn 0.459761 0.847407 -0.265419
vn 0.530869 0.847407 0.000000
vn 0.875973 0.482315 0.000000
vn 1.000000 0.000000 0.000000
vn 0.875973 -0.482315 0.000000
vn 0.530869 -0.847407 0.000000
vn 0.866024 0.000000 0.499985
vn 0.758599 -0.482315 0.437971
vn 0.758599 0.482315 0.437971
vn 0.459761 -0.847407 0.265450
vn 0.459761 0.847407 0.265419
vn 0.437971 0.482315 0.758599
vn 0.499985 0.000000 0.866024
vn 0.437971 -0.482315 0.758599
vn 0.265419 -0.847407 0.459761
vn 0.265419 0.847407 0.459761
vn 0.000000 0.847407 0.530869
vn 0.000000 0.482315 0.875973
vn 0.000000 0.000000 1.000000
vn 0.000000 -0.482315 0.875973
vn 0.000000 -0.847407 0.530869
vn -0.437971 0.482315 0.758599
vn -0.499985 0.000000 0.866024
vn -0.437971 -0.482315 0.758599
vn -0.265450 -0.847407 0.459761
vn -0.265419 0.847407 0.459761
vn -0.758599 0.482315 0.437971
vn -0.866024 0.000000 0.499985
vn -0.758599 -0.482315 0.437971
vn -0.459761 -0.847407 0.265419
vn -0.459761 0.847407 0.265419
vn 0.000000 -1.000000 0.000000
vn 0.000000 1.000000 0.000000
usemtl 
s 1
f 2//1 1//2 6//3 7//4
f 8//5 9//6 4//7 3//8
f 7//4 8//5 3//8 2//1
f 9//6 10//9 5//10 4//7
f 12//11 13//12 8//5 7//4
f 14//13 15//14 10//9 9//6
f 11//15 12//11 7//4 6//3
f 13//12 14//13 9//6 8//5
f 19//16 20//17 15//14 14//13
f 16//18 17//19 12//11 11//15
f 18//20 19//16 14//13 13//12
f 17//19 18//20 13//12 12//11
f 24//21 25//22 19//16 18//20
f 23//23 24//21 18//20 17//19
f 25//22 26//24 20//17 19//16
f 22//25 23//23 17//19 16//18
f 28//26 29//27 24//21 23//23
f 30//28 31//29 26//24 25//22
f 27//30 28//26 23//23 22//25
f 29//27 30//28 25//22 24//21
f 32//31 33//32 28//26 27//30
f 34//33 35//34 30//28 29//27
f 33//32 34//33 29//27 28//26
f 35//34 36//35 31//29 30//28
f 40//36 41//37 35//34 34//33
f 39//38 40//36 34//33 33//32
f 41//37 42//39 36//35 35//34
f 38//40 39//38 33//32 32//31
f 44//41 45//42 40//36 39//38
f 46//43 47//44 42//39 41//37
f 43//45 44//41 39//38 38//40
f 45//42 46//43 41//37 40//36
f 48//46 49//47 44//41 43//45
f 50//48 51//49 46//43 45//42
f 49//47 50//48 45//42 44//41
f 51//49 52//50 47//44 46//43
f 54//51 55//52 50//48 49//47
f 56//53 57//54 52//50 51//49
f 53//55 54//51 49//47 48//46
f 55//52 56//53 51//49 50//48
f 59//56 60//57 55//52 54//51
f 61//58 62//59 57//54 56//53
f 58//60 59//56 54//51 53//55
f 60//57 61//58 56//53 55//52
f 10//9 37//61 5//10
f 6//3 1//2 21//62
f 21//62 11//15 6//3
f 15//14 37//61 10//9
f 20//17 37//61 15//14
f 21//62 16//18 11//15
f 26//24 37//61 20//17
f 21//62 22//25 16//18
f 31//29 37//61 26//24
f 21//62 27//30 22//25
f 36//35 37//61 31//29
f 21//62 32//31 27//30
f 42//39 37//61 36//35
f 21//62 38//40 32//31
f 47//44 37//61 42//39
f 21//62 43//45 38//40
f 52//50 37//61 47//44
f 21//62 48//46 43//45
f 57//54 37//61 52//50
f 21//62 53//55 48//46
f 62//59 37//61 57//54
f 21//62 58//60 53//55
f 1//2 2//1 59//56 58//60
f 3//8 4//7 61//58 60//57
f 5//10 37//61 62//59
f 21//62 1//2 58//60
f 2//1 3//8 60//57 59//56
f 4//7 5//10 62//59 61//58
